<mxfile host="app.diagrams.net" modified="2023-10-15T23:16:08.934Z" agent="Mozilla/5.0 (Windows NT 10.0; Win64; x64) AppleWebKit/537.36 (KHTML, like Gecko) Chrome/118.0.0.0 Safari/537.36" etag="M1vA2VDqyi0jy7jjvXz8" version="22.0.0" type="device">
  <diagram name="Page-1" id="qrHbCYk6dGWtCIVNFGCk">
    <mxGraphModel dx="1050" dy="534" grid="1" gridSize="10" guides="1" tooltips="1" connect="1" arrows="1" fold="1" page="1" pageScale="1" pageWidth="850" pageHeight="1100" math="0" shadow="0">
      <root>
        <mxCell id="0" />
        <mxCell id="1" parent="0" />
        <mxCell id="G4wsHfm_pi-paSQcN1I5-2" value="University" style="rounded=1;arcSize=10;whiteSpace=wrap;html=1;align=center;" vertex="1" parent="1">
          <mxGeometry x="410" y="230" width="100" height="40" as="geometry" />
        </mxCell>
        <mxCell id="G4wsHfm_pi-paSQcN1I5-3" value="Dean" style="rounded=1;arcSize=10;whiteSpace=wrap;html=1;align=center;" vertex="1" parent="1">
          <mxGeometry x="250" y="340" width="100" height="40" as="geometry" />
        </mxCell>
      </root>
    </mxGraphModel>
  </diagram>
</mxfile>
